# xmcd CD database file
#
# Track frame offsets:
#	150
#	4690
#	22145
#	44088
#	62470
#	80589
#	102393
#	110177
#	118475
#	136694
#	156408
#	172256
#
# Disc length: 2581 seconds
#
# Revision: 5
# Processed by: cddbd v1.5.1PL0 Copyright (c) Steve Scherf et al.
# Submitted via: CDex 1.51
#
DISCID=af0a130c
DTITLE=HALCALI - ﾊﾙｶﾘﾍﾞｰｺﾝ
DYEAR=2003
DGENRE=Hip-Hop
TTITLE0=intro.HALCALI Bacon
TTITLE1=ﾀﾝﾃﾞﾑ
TTITLE2=ｷﾞﾘｷﾞﾘ･ｻｰﾌﾗｲﾀﾞｰ
TTITLE3=嗚呼ﾊﾙｶﾘｾﾝｾｰｼｮﾝ
TTITLE4=おつかれSummer
TTITLE5=ﾊﾙｶﾘｽﾞﾑ "Candy Hearts"
TTITLE6=Conversation Of A Mystery
TTITLE7=Peek-A-Boo
TTITLE8=Hello,Hello,Alone
TTITLE9=ｽﾀｲﾘｰｽﾀｲﾘｰ
TTITLE10=ｴﾚｸﾄﾘｯｸ先生
TTITLE11=続･真夜中のｸﾞﾗﾝﾄﾞ
EXTD=YEAR: 2003
EXTT0=
EXTT1=
EXTT2=
EXTT3=
EXTT4=
EXTT5=
EXTT6=
EXTT7=
EXTT8=
EXTT9=
EXTT10=
EXTT11=
PLAYORDER=
